#!OML:ASF H:\BreakDance\Project 1\Capture day 1\Session 1\Male.ASF
:FULLY-SPECIFIED
:DEGREES
218
root 18.3473 9.85385 -11.0825 -148.17 190.033 -42.4991
lowerback -6.39552 -5.16529 11.2224
upperback -1.91345 -6.80998 14.3798
thorax 2.00595 -3.02643 8.61222
lowerneck -11.5948 -2.20883 -3.09799
upperneck 2.88182 -3.20746 13.26
head 3.05008 -1.04883 4.36699
rclavicle 1.17283e-013 -6.04305e-014
rhumerus 37.9244 -47.6252 -66.8539
rradius 113.939
rwrist -14.6811
rhand -56.676 471.54
rfingers 7.12502
rthumb -28.9821 139.307
lclavicle 1.17283e-013 -6.04305e-014
lhumerus 25.8534 -10.4649 6.37279
lradius 61.271
lwrist 9.91768
lhand -16.8877 -395.095
lfingers 7.12502
lthumb 9.34369 -5.32196
rfemur -58.7446 -20.4095 -37.945
rtibia 65.0557
rfoot 9.28708 -22.0719
rtoes 30.1238
lfemur 27.5338 37.8842 8.32168
ltibia 94.3959
lfoot 50.8737 -9.90089
ltoes -24.5853
219
root 18.3794 9.77791 -11.1104 -147.63 188.644 -43.2451
lowerback -6.78228 -5.26661 11.3679
upperback -2.12264 -6.95006 14.7859
thorax 2.04183 -3.08347 8.96902
lowerneck -11.3926 -2.4538 -2.8226
upperneck 2.64429 -3.55527 13.798
head 2.98616 -1.20316 4.46592
rclavicle 9.34288e-014 5.88403e-014
rhumerus 37.7528 -48.5104 -67.4967
rradius 114.171
rwrist -15.2214
rhand -56.9065 469.612
rfingers 7.12502
rthumb -29.2022 137.341
lclavicle 9.34288e-014 5.88403e-014
lhumerus 24.7221 -10.3909 6.0206
lradius 59.1437
lwrist 10.0068
lhand -17.1922 -395.177
lfingers 7.12502
lthumb 9.04984 -5.39124
rfemur -56.3368 -20.6447 -38.1039
rtibia 65.469
rfoot 8.14371 -22.8078
rtoes 34.0336
lfemur 27.9757 38.3962 9.19489
ltibia 94.5653
lfoot 50.6266 -8.94727
ltoes -22.6489
220
root 18.4153 9.69879 -11.1413 -147.122 187.32 -43.9235
lowerback -7.1518 -5.38088 11.4365
upperback -2.31046 -7.10619 15.1527
thorax 2.09818 -3.14879 9.32344
lowerneck -11.2224 -2.6932 -2.57783
upperneck 2.38821 -3.88733 14.4159
head 2.92476 -1.34818 4.59618
rclavicle 6.91771e-014 -1.22451e-013
rhumerus 37.3719 -49.3689 -67.9743
rradius 114.406
rwrist -15.7601
rhand -56.9024 468.163
rfingers 7.12502
rthumb -29.1983 135.893
lclavicle 6.91771e-014 -1.22451e-013
lhumerus 23.743 -10.2883 5.68896
lradius 56.8922
lwrist 10.0704
lhand -17.5514 -395.232
lfingers 7.12502
lthumb 8.70326 -5.43137
rfemur -53.9187 -20.6783 -38.3255
rtibia 65.7539
rfoot 6.81951 -23.667
rtoes 37.9289
lfemur 28.2692 38.8313 9.64217
ltibia 94.5202
lfoot 50.3167 -7.973
ltoes -20.7636
221
root 18.4551 9.61623 -11.1752 -146.621 186.061 -44.5403
lowerback -7.52899 -5.51949 11.4263
upperback -2.47683 -7.29758 15.4794
thorax 2.19189 -3.23138 9.67082
lowerneck -11.1232 -2.9112 -2.36387
upperneck 2.18803 -4.1951 15.1529
head 2.89564 -1.47361 4.77048
rclavicle 3.83654e-014 -4.92986e-014
rhumerus 36.8068 -50.1699 -68.3724
rradius 114.648
rwrist -16.2597
rhand -56.6923 467.322
rfingers 7.12502
rthumb -28.9976 135.086
lclavicle 3.83654e-014 -4.92986e-014
lhumerus 22.8308 -10.1467 5.3632
lradius 54.5643
lwrist 9.99359
lhand -17.9943 -395.286
lfingers 7.12502
lthumb 8.27579 -5.4681
rfemur -51.5563 -20.5596 -38.5617
rtibia 65.9759
rfoot 5.38993 -24.5571
rtoes 41.6071
lfemur 28.3956 39.1875 9.69971
ltibia 94.2985
lfoot 49.938 -7.09346
ltoes -19.0786
222
root 18.4979 9.53084 -11.2123 -146.119 184.857 -45.1448
lowerback -7.90061 -5.68464 11.3814
upperback -2.60777 -7.52797 15.7789
thorax 2.32785 -3.33205 10.0012
lowerneck -11.1116 -3.09849 -2.18084
upperneck 2.05715 -4.47096 16.0139
head 2.90581 -1.57382 4.99095
rclavicle 1.19271e-013 -4.45278e-014
rhumerus 36.1354 -50.8895 -68.7953
rradius 114.87
rwrist -16.7213
rhand -56.4226 466.974
rfingers 7.12502
rthumb -28.74 134.782
lclavicle 1.19271e-013 -4.45278e-014
lhumerus 22.0243 -9.95152 5.00868
lradius 52.1124
lwrist 9.7774
lhand -18.4821 -395.365
lfingers 7.12502
lthumb 7.805 -5.5288
rfemur -49.3032 -20.2953 -38.7304
rtibia 66.1784
rfoot 3.93063 -25.3992
rtoes 44.9989
lfemur 28.3867 39.4745 9.47724
ltibia 93.9396
lfoot 49.4768 -6.395
ltoes -17.7179
223
root 18.5436 9.44325 -11.2531 -145.626 183.691 -45.749
lowerback -8.25314 -5.86385 11.329
upperback -2.73845 -7.77437 16.0283
thorax 2.45137 -3.44122 10.2759
lowerneck -10.9985 -3.26389 -2.00582
upperneck 1.90246 -4.71158 16.9984
head 2.89582 -1.65894 5.25521
rclavicle -6.16232e-014 -3.33958e-014
rhumerus 35.2469 -51.5764 -69.1857
rradius 115.058
rwrist -17.1955
rhand -56.2247 466.976
rfingers 7.12502
rthumb -28.5509 134.816
lclavicle -6.16232e-014 -3.33958e-014
lhumerus 21.319 -9.79268 4.5861
lradius 49.6333
lwrist 9.49937
lhand -18.9575 -395.453
lfingers 7.12502
lthumb 7.34619 -5.60021
rfemur -47.1543 -19.8968 -38.8045
rtibia 66.3838
rfoot 2.51245 -26.1152
rtoes 47.9487
lfemur 28.2751 39.6767 9.05422
ltibia 93.474
lfoot 48.9316 -5.83294
ltoes -16.6332
224
root 18.5934 9.35356 -11.298 -145.151 182.551 -46.3246
lowerback -8.58115 -6.04385 11.2592
upperback -2.89375 -8.01507 16.2031
thorax 2.52723 -3.5499 10.4737
lowerneck -10.7097 -3.42747 -1.83186
upperneck 1.70227 -4.93416 18.118
head 2.84879 -1.74221 5.56603
rclavicle -2.78299e-014 -4.13472e-014
rhumerus 34.0647 -52.2932 -69.4887
rradius 115.246
rwrist -17.7058
rhand -56.1256 467.208
rfingers 7.12502
rthumb -28.4563 135.064
lclavicle -2.78299e-014 -4.13472e-014
lhumerus 20.7352 -9.70589 4.09617
lradius 47.2093
lwrist 9.2442
lhand -19.3478 -395.53
lfingers 7.12502
lthumb 6.96943 -5.66453
rfemur -45.0838 -19.3235 -38.8168
rtibia 66.6004
rfoot 1.31356 -26.7135
rtoes 50.1948
lfemur 28.0865 39.7811 8.46287
ltibia 92.9241
lfoot 48.3147 -5.44622
ltoes -15.8894
